PathFileType	4	(X/Y/Z)	 s02c0202.trc
DataRate	CameraRate	NumFrames	NumMarkers	Units	OrigDataRate	OrigDataStartFrame	OrigNumFrames
200	200	5	50	mm	200	1751	2000
Frame#	Time	racr			lacr			c7			jug			rlel			rdr			llel			ldr			s2			lic			ric			lasi			rasi			rpsi			lpsi			rgt			lgt			rth1			rth2			rth3			rth4			rlfc			rmfc			rsh1			rsh2			rsh3			rsh4			rlmal			rmmal			rtoe			rmt5			rmt1			lth1			lth2			lth4			lth3			llfc			lmfc			lsh1			lsh2			lsh3			lsh4			llmal			lmmal			lcal			ltoe			lmt5			SBIKE			LBIKE			RBIKE			
		X1	Y1	Z1	X2	Y2	Z2	X3	Y3	Z3	X4	Y4	Z4	X5	Y5	Z5	X6	Y6	Z6	X7	Y7	Z7	X8	Y8	Z8	X9	Y9	Z9	X10	Y10	Z10	X11	Y11	Z11	X12	Y12	Z12	X13	Y13	Z13	X14	Y14	Z14	X15	Y15	Z15	X16	Y16	Z16	X17	Y17	Z17	X18	Y18	Z18	X19	Y19	Z19	X20	Y20	Z20	X21	Y21	Z21	X22	Y22	Z22	X23	Y23	Z23	X24	Y24	Z24	X25	Y25	Z25	X26	Y26	Z26	X27	Y27	Z27	X28	Y28	Z28	X29	Y29	Z29	X30	Y30	Z30	X31	Y31	Z31	X32	Y32	Z32	X33	Y33	Z33	X34	Y34	Z34	X35	Y35	Z35	X36	Y36	Z36	X37	Y37	Z37	X38	Y38	Z38	X39	Y39	Z39	X40	Y40	Z40	X41	Y41	Z41	X42	Y42	Z42	X43	Y43	Z43	X44	Y44	Z44	X45	Y45	Z45	X46	Y46	Z46	X47	Y47	Z47	X48	Y48	Z48	X49	Y49	Z49	X50	Y50	Z50	
1751	8.7550	538.476397	1217.573033	-148.303328	574.824304	1218.405934	-454.867169	539.103651	1260.338918	-301.168846	489.568186	1127.460522	-302.137077	553.296115	998.393805	-11.382497	688.999573	883.910787	-112.060020	538.102178	1002.170271	-633.890302	696.014055	887.951167	-533.121571	12.428011	1126.760979	-344.287903	132.439070	1085.478229	-492.569009	129.957459	1135.104443	-192.609223	177.271365	1056.008541	-462.748089	178.863025	1110.676625	-221.446482	23.625842	1161.743387	-305.111358	40.041807	1161.620612	-390.189296	114.724276	1078.806659	-145.572555	88.075736	1003.364608	-497.528586	204.861521	1063.120730	-144.583662	292.462898	1059.448176	-151.183501	367.024193	1025.426866	-124.798167	300.878769	1081.654301	-181.082237	495.052242	950.826139	-153.011851	489.781726	922.830270	-267.284615	471.679763	844.287544	-134.945989	446.789972	759.285982	-149.243384	386.813132	697.640940	-142.895047	460.480999	752.893577	-186.231087	314.619898	593.335485	-143.939190	324.958144	609.449130	-224.217777	496.985048	471.814921	-188.571443	389.098279	490.999718	-126.456278	417.200079	495.699021	-233.997889	182.897410	899.301811	-522.104363	245.323832	838.209869	-525.769929	275.607712	856.145177	-514.203489	267.639720	752.006717	-523.112365	318.448872	667.082356	-499.571271	329.746485	638.897686	-397.555864	282.987094	570.882766	-517.544438	272.799698	486.433039	-501.004377	217.822904	414.537392	-497.684586	294.910905	481.992031	-466.724743	170.904758	323.070401	-480.894029	187.360798	315.287397	-404.416261	95.854528	313.158308	-439.166675	322.847248	134.878694	-438.403598	224.238451	177.206677	-501.698397	-162.452751	859.734340	-309.731946	37.097157	86.574407	-514.212510	33.813869	82.977157	-114.310220	
1752	8.7600	537.120289	1217.237375	-146.595373	575.781330	1216.772390	-453.029701	538.975790	1259.643995	-299.501235	488.875148	1126.973454	-300.519243	552.868274	997.809478	-10.676328	688.851986	883.908216	-111.825144	538.760883	1002.424406	-634.419098	696.084674	887.895734	-533.250320	12.107419	1127.716070	-345.175614	132.694823	1086.376442	-492.976689	129.761634	1135.376862	-193.363642	177.358816	1056.817344	-462.986204	179.044362	1111.005488	-221.843955	23.576906	1163.149271	-306.037805	40.009388	1162.514946	-391.002599	114.608788	1079.023621	-146.780054	88.444855	1004.003933	-498.585560	204.844802	1061.351885	-145.012384	292.664407	1056.219602	-150.834733	366.137337	1020.334909	-124.336889	301.724836	1078.110558	-180.938016	494.531063	944.305091	-152.793356	488.183360	915.916669	-266.140814	470.838157	835.341809	-134.284742	446.478512	750.764581	-148.446376	387.387494	688.113583	-142.523190	460.382858	744.918994	-185.653223	316.918384	583.325727	-143.715838	326.371614	599.704149	-224.160098	504.555995	471.235728	-188.233230	396.372852	484.210564	-126.063633	423.692068	491.477455	-233.386780	184.840274	900.902781	-522.163654	248.077523	840.670331	-525.602617	278.082429	858.960923	-514.082472	271.618721	754.732409	-523.065604	322.676425	670.047151	-499.437189	333.582603	641.879213	-397.139729	285.331330	574.372954	-517.232735	272.352623	490.307959	-500.148385	215.493065	420.109179	-497.440403	294.285531	485.231597	-465.850953	165.408383	330.069839	-480.636871	181.710962	321.735204	-404.029246	90.120615	321.340006	-438.747611	313.530717	139.003652	-438.474480	215.617386	182.923560	-501.520783	-162.368403	859.780700	-309.511293	37.109479	86.610543	-514.207227	33.464782	83.201833	-114.470381	
1753	8.7650	536.017883	1216.967942	-145.214317	576.637348	1215.176694	-451.427960	538.923011	1259.002102	-298.090781	488.264685	1126.538942	-299.113065	552.418602	997.305131	-9.962041	688.696857	883.914249	-111.562968	539.327486	1002.570315	-634.917335	696.119705	887.765812	-533.372426	11.988628	1128.455148	-346.080215	133.095518	1087.101446	-493.456185	129.472789	1135.216895	-194.153079	177.610342	1057.460027	-463.319561	179.221397	1110.984018	-222.072076	23.563748	1164.342589	-306.935850	40.254754	1163.412689	-391.998767	114.438246	1078.630045	-148.096565	88.868307	1004.639065	-499.482395	204.909166	1059.009119	-145.266988	292.530460	1051.631792	-150.989953	365.151818	1014.680689	-123.562634	302.365085	1073.949439	-180.257203	489.535229	934.824616	-150.846514	486.323494	908.063691	-264.809058	469.105813	826.353314	-133.779671	445.806113	741.297778	-147.784070	387.614770	677.670986	-142.126024	459.695645	735.833901	-185.107485	318.780344	572.485808	-143.920343	327.705713	589.109022	-224.455108	511.395284	470.104770	-187.742167	402.735572	477.474192	-125.560798	429.819121	486.459504	-232.950769	187.104998	902.525920	-522.092224	251.232896	843.227402	-525.190712	280.894739	861.966647	-513.741449	276.045376	757.714801	-522.924426	327.503984	673.098420	-499.317468	337.720047	645.165929	-396.604118	288.242344	578.056469	-516.924217	272.666641	494.642405	-499.932761	213.653778	426.092350	-497.201516	294.188599	488.998394	-465.304987	160.301380	337.599988	-480.402365	176.412205	328.631512	-403.681092	84.895939	329.901667	-438.154228	304.572956	143.636324	-438.511382	207.319167	189.231375	-501.377827	-162.283901	859.821535	-309.238279	37.131905	86.625921	-514.203991	33.825164	82.967943	-114.307087	
1754	8.7700	534.909062	1216.902166	-143.844789	577.354006	1213.710478	-450.020398	538.909139	1258.481382	-296.960656	487.501762	1126.301659	-297.865888	552.044083	996.955790	-9.479630	688.551370	883.950449	-111.343453	539.839255	1002.499627	-635.434355	696.347350	887.417767	-533.348217	11.982730	1128.873547	-346.975418	133.353905	1087.762336	-494.205951	129.302180	1134.640734	-194.742157	177.891284	1058.204747	-464.014434	179.435101	1110.576399	-222.175598	26.365209	1164.248967	-308.826829	40.249850	1163.965116	-392.858976	114.497001	1077.347124	-149.754381	89.436683	1005.000217	-500.545076	205.074275	1056.177421	-145.269474	292.629834	1047.214739	-150.198309	364.288174	1008.691560	-122.883888	303.034651	1069.306252	-179.410689	487.192270	925.450254	-149.501226	484.212201	899.586038	-263.419902	466.893224	815.850682	-132.910775	444.780877	730.679702	-147.407929	387.510513	666.331917	-142.007871	458.565573	725.538114	-184.647694	320.289774	560.773059	-145.027694	328.822799	577.666876	-224.919592	517.861500	468.121491	-187.134158	408.619925	470.169780	-125.346055	435.488267	480.671473	-232.759606	189.688542	904.137831	-521.994462	254.653759	845.842062	-524.616393	283.998091	864.992837	-513.076607	280.857732	760.814481	-522.663167	332.691107	676.460783	-499.104591	342.036976	648.540467	-395.989600	291.549613	582.076476	-516.587960	273.393772	499.170556	-499.449862	212.216197	432.504929	-496.977680	294.425449	492.938789	-464.567537	155.649193	345.535646	-480.248321	171.552600	336.065598	-403.378139	79.880013	338.933846	-437.870032	295.968695	148.821072	-438.495715	199.532410	196.081493	-501.220646	-162.255579	859.784323	-309.258520	37.117923	86.641277	-514.194020	33.829266	82.954821	-114.281105	
1755	8.7750	534.084988	1216.818300	-142.761745	577.876227	1212.339678	-448.912203	539.004490	1258.010109	-296.021357	486.658074	1126.194150	-296.821985	551.658570	996.723627	-9.013298	688.417640	884.011572	-111.120598	540.365924	1002.437339	-635.944316	696.277054	886.934418	-533.131652	12.085906	1128.920395	-347.850165	133.736893	1088.247692	-494.975731	128.958605	1133.792441	-195.351571	178.300066	1058.746277	-464.761418	179.667312	1109.875593	-222.144198	26.494284	1164.372365	-309.778270	40.360193	1164.267932	-393.665684	114.318111	1075.695803	-150.746057	90.112796	1005.240566	-501.661085	205.293363	1052.890081	-145.046735	292.636077	1041.959761	-149.623623	363.081548	1001.204282	-121.427724	303.751803	1064.070743	-178.254380	485.530011	915.357347	-148.253417	481.948199	890.406999	-261.869828	464.546076	804.604268	-131.225732	443.530574	719.223307	-147.135285	387.322226	653.894596	-142.077785	457.459869	714.692186	-184.259208	322.068351	548.486714	-145.781117	330.193170	565.599143	-225.826271	523.419100	465.384058	-186.738863	414.073890	462.275332	-125.227980	440.792409	474.227287	-232.722185	192.422452	905.833431	-521.801243	258.404805	848.584299	-523.813301	287.294634	868.204504	-512.332905	285.957014	764.014968	-522.231503	338.280173	679.973483	-498.768002	346.566488	652.132502	-395.337782	295.150748	586.108692	-516.242501	274.327604	503.845562	-498.990301	211.213444	439.237466	-496.723807	294.975872	497.220583	-463.942524	151.384302	353.975844	-480.169518	167.199286	343.886385	-403.189340	75.278599	348.673697	-437.935560	287.765671	154.394508	-438.560775	192.150652	203.279645	-501.191316	-162.175746	859.229408	-311.204938	37.144505	86.608722	-514.251658	33.463875	83.198771	-114.452591	
